<svg xmlns="http://www.w3.org/2000/svg" width="6.608" height="14.224" viewBox="0 0 6.608 14.224">
  <path id="Path_4036" data-name="Path 4036" d="M393.928,221.049v6.877a.179.179,0,0,0,.179.179h2.554a.179.179,0,0,0,.179-.179v-6.989h1.852a.179.179,0,0,0,.178-.164l.178-2.106a.179.179,0,0,0-.179-.194H396.84v-1.494a.634.634,0,0,1,.634-.634H398.9a.179.179,0,0,0,.179-.179V214.06a.179.179,0,0,0-.179-.179H396.49a2.562,2.562,0,0,0-2.562,2.562v2.03h-1.277a.179.179,0,0,0-.179.179v2.106a.179.179,0,0,0,.179.179h1.277Z" transform="translate(-392.472 -213.881)" fill="rgba(51,51,51,0.4)" fill-rule="evenodd"/>
</svg>
