<svg xmlns="http://www.w3.org/2000/svg" width="9.673" height="20.821" viewBox="0 0 9.673 20.821">
  <path id="Path_4036" data-name="Path 4036" d="M394.6,224.374V234.44a.262.262,0,0,0,.262.262H398.6a.262.262,0,0,0,.262-.262v-10.23h2.71a.262.262,0,0,0,.261-.24l.261-3.083a.263.263,0,0,0-.262-.284h-2.971v-2.187a.928.928,0,0,1,.928-.928h2.089a.262.262,0,0,0,.262-.262v-3.082a.262.262,0,0,0-.262-.262h-3.529a3.75,3.75,0,0,0-3.75,3.75V220.6h-1.869a.262.262,0,0,0-.262.262v3.083a.262.262,0,0,0,.262.262H394.6Z" transform="translate(-392.472 -213.881)" fill="#fff" fill-rule="evenodd"/>
</svg>
