<svg xmlns="http://www.w3.org/2000/svg" width="14.837" height="14.837" viewBox="0 0 14.837 14.837">
  <g id="Group_4592" data-name="Group 4592" transform="translate(-38.745 -707.083)">
    <path id="Path_4039" data-name="Path 4039" d="M475.194,215.005a.872.872,0,1,0,.872.873A.872.872,0,0,0,475.194,215.005Zm-3.878,1.119a3.664,3.664,0,1,0,3.664,3.664A3.668,3.668,0,0,0,471.316,216.124Zm0,6.012a2.347,2.347,0,1,1,2.347-2.347A2.35,2.35,0,0,1,471.316,222.135Zm7.394-5.393a4.469,4.469,0,0,0-4.47-4.469h-5.9a4.469,4.469,0,0,0-4.469,4.469v5.9a4.469,4.469,0,0,0,4.469,4.469h5.9a4.47,4.47,0,0,0,4.47-4.469Zm-1.4,5.9a3.069,3.069,0,0,1-3.07,3.069h-5.9a3.069,3.069,0,0,1-3.069-3.069v-5.9a3.069,3.069,0,0,1,3.069-3.069h5.9a3.069,3.069,0,0,1,3.07,3.069Z" transform="translate(-425.128 494.81)" fill="rgba(51,51,51,0.4)"/>
  </g>
</svg>
