<svg xmlns="http://www.w3.org/2000/svg" width="27.714" height="27.707" viewBox="0 0 27.714 27.707">
  <g id="Group_3471" data-name="Group 3471" transform="translate(0.009 0.006)">
    <path id="Path_735" data-name="Path 735" d="M23.648,23.648a13.857,13.857,0,1,0-19.6,0,13.857,13.857,0,0,0,19.6,0ZM5.029,5.029a12.475,12.475,0,1,1,0,17.642,12.475,12.475,0,0,1,0-17.642Z" fill="#ee4e56"/>
    <path id="Path_736" data-name="Path 736" d="M160.9,167.941a1,1,0,0,0,.694-.287.983.983,0,0,0,.287-.694v-5.367h5.367a1,1,0,0,0,.694-.287.983.983,0,0,0,.287-.694.967.967,0,0,0-.973-.973h-5.367v-5.367a.973.973,0,1,0-1.946,0v5.367h-5.367a.973.973,0,1,0,0,1.946h5.367v5.367a.948.948,0,0,0,.957.989Z" transform="translate(-147.047 -146.77)" fill="#ee4e56"/>
  </g>
</svg>
