<svg xmlns="http://www.w3.org/2000/svg" width="31.014" height="10.941" viewBox="0 0 31.014 10.941">
  <g id="Group_181" data-name="Group 181" transform="translate(17.863)">
    <g id="Group_180" data-name="Group 180" transform="translate(0 0)">
      <path id="Path_305" data-name="Path 305" d="M12.941,46.305,8.192,41.556a.722.722,0,0,0-1.018,0l-.431.431a.714.714,0,0,0-.21.509.729.729,0,0,0,.21.515l2.771,2.777H-17.152a.7.7,0,0,0-.71.708v.61a.729.729,0,0,0,.71.739h26.7l-2.8,2.792a.713.713,0,0,0,0,1.011l.431.43a.722.722,0,0,0,1.018,0l4.749-4.749a.726.726,0,0,0,0-1.022Z" transform="translate(0 -41.346)" fill="#fff"/>
    </g>
  </g>
</svg>
